<svg width="576" height="97" viewBox="0 0 576 97" fill="none" xmlns="http://www.w3.org/2000/svg">
<path fill-rule="evenodd" clip-rule="evenodd" d="M493.073 7L444 91.2662L454.017 97L503.092 12.7336L493.073 7ZM559.641 52.7666L523.246 88.8475L531.428 96.9562L576 52.7666L531.428 8.5772L523.246 16.6857L559.641 52.7666Z" fill="url(#paint0_linear_218_184)"/>
<path d="M109.705 95C108.708 95 108.21 94.4633 108.21 93.39V34.51C108.21 30.37 109.015 26.69 110.625 23.47C112.312 20.25 114.612 17.7583 117.525 15.995C120.515 14.155 123.927 13.235 127.76 13.235C133.663 13.235 138.455 15.2283 142.135 19.215C145.815 23.125 147.655 28.2233 147.655 34.51V43.71C147.655 48.0033 146.735 51.76 144.895 54.98C143.055 58.1233 140.563 60.5383 137.42 62.225L149.725 93.275L149.84 93.735C149.84 94.1183 149.687 94.425 149.38 94.655C149.073 94.885 148.69 95 148.23 95H140.41C139.567 95 139.03 94.54 138.8 93.62L127.875 64.64H118.56V93.39C118.56 94.4633 118.062 95 117.065 95H109.705ZM127.415 55.095C130.405 55.095 132.782 54.0983 134.545 52.105C136.308 50.035 137.19 47.3133 137.19 43.94V34.05C137.19 30.7533 136.308 28.1083 134.545 26.115C132.858 24.045 130.635 23.01 127.875 23.01C125.115 23.01 122.853 24.045 121.09 26.115C119.403 28.1083 118.56 30.7533 118.56 34.05V55.095H127.415ZM167.827 14.5C168.823 14.5 169.322 14.9983 169.322 15.995V75.565C169.322 78.8617 170.165 81.5067 171.852 83.5C173.538 85.4933 175.8 86.49 178.637 86.49C181.473 86.49 183.735 85.4933 185.422 83.5C187.108 81.5067 187.952 78.8617 187.952 75.565V15.995C187.952 15.535 188.105 15.19 188.412 14.96C188.718 14.6533 189.102 14.5 189.562 14.5H196.807C197.88 14.5 198.417 14.9983 198.417 15.995V74.99C198.417 81.2767 196.615 86.4133 193.012 90.4C189.408 94.31 184.617 96.265 178.637 96.265C172.733 96.265 167.98 94.31 164.377 90.4C160.773 86.4133 158.972 81.2767 158.972 74.99V15.995C158.972 14.9983 159.47 14.5 160.467 14.5H167.827ZM211.546 15.995C211.546 14.9983 212.083 14.5 213.156 14.5H220.401C221.398 14.5 221.896 14.9983 221.896 15.995V93.39C221.896 94.4633 221.398 95 220.401 95H213.156C212.083 95 211.546 94.4633 211.546 93.39V15.995Z" fill="url(#paint1_linear_218_184)"/>
<path d="M237.414 95C236.724 95 236.379 94.6933 236.379 94.08V33.935C236.379 27.8783 238.066 22.9717 241.439 19.215C244.889 15.3817 249.413 13.465 255.009 13.465C260.529 13.465 264.976 15.3817 268.349 19.215C271.799 22.9717 273.524 27.8783 273.524 33.935V94.08C273.524 94.6933 273.218 95 272.604 95H269.154C268.464 95 268.119 94.6933 268.119 94.08V33.935C268.119 29.2583 266.931 25.54 264.554 22.78C262.178 19.9433 258.996 18.525 255.009 18.525C251.023 18.525 247.803 19.9433 245.349 22.78C242.973 25.54 241.784 29.2583 241.784 33.935V94.08C241.784 94.6933 241.478 95 240.864 95H237.414ZM305.624 95.23C302.02 95.23 298.8 94.3867 295.964 92.7C293.204 91.0133 291.019 88.675 289.409 85.685C287.875 82.695 287.109 79.36 287.109 75.68V33.82C287.109 30.14 287.875 26.805 289.409 23.815C291.019 20.825 293.204 18.4867 295.964 16.8C298.8 15.1133 302.02 14.27 305.624 14.27H317.009C317.622 14.27 317.929 14.5767 317.929 15.19V18.295C317.929 18.985 317.622 19.33 317.009 19.33H305.624C301.714 19.33 298.532 20.71 296.079 23.47C293.702 26.1533 292.514 29.6033 292.514 33.82V51.645H314.364C315.054 51.645 315.399 51.9517 315.399 52.565V55.67C315.399 56.2833 315.054 56.59 314.364 56.59H292.514V75.68C292.514 79.8967 293.702 83.385 296.079 86.145C298.532 88.8283 301.714 90.17 305.624 90.17H317.009C317.622 90.17 317.929 90.515 317.929 91.205V94.31C317.929 94.9233 317.622 95.23 317.009 95.23H305.624ZM359.829 14.5C360.442 14.5 360.749 14.8067 360.749 15.42V18.525C360.749 19.215 360.442 19.56 359.829 19.56H345.454V94.08C345.454 94.6933 345.147 95 344.534 95H341.084C340.394 95 340.049 94.6933 340.049 94.08V19.56H325.674C325.061 19.56 324.754 19.215 324.754 18.525V15.42C324.754 14.8067 325.061 14.5 325.674 14.5H359.829ZM385.601 95.92C379.851 95.92 375.212 94.0033 371.686 90.17C368.159 86.26 366.396 81.1233 366.396 74.76V34.855C366.396 28.415 368.159 23.2783 371.686 19.445C375.212 15.535 379.851 13.58 385.601 13.58C391.351 13.58 395.989 15.4583 399.516 19.215C403.042 22.9717 404.806 27.9167 404.806 34.05V75.45C404.806 81.5833 403.042 86.5283 399.516 90.285C395.989 94.0417 391.351 95.92 385.601 95.92ZM385.601 90.975C389.741 90.975 393.076 89.5567 395.606 86.72C398.212 83.8833 399.516 80.1267 399.516 75.45V34.05C399.516 29.3733 398.212 25.6167 395.606 22.78C393.076 19.9433 389.741 18.525 385.601 18.525C381.461 18.525 378.126 19.9817 375.596 22.895C373.066 25.8083 371.801 29.795 371.801 34.855V74.76C371.801 79.7433 373.066 83.6917 375.596 86.605C378.126 89.5183 381.461 90.975 385.601 90.975Z" fill="white"/>
<path fill-rule="evenodd" clip-rule="evenodd" d="M16.1247 53.5001L52 17.982L43.9378 10L0 53.5001L43.9378 97L52 89.0183L16.1247 53.5001Z" fill="url(#paint2_linear_218_184)"/>
<defs>
<linearGradient id="paint0_linear_218_184" x1="576" y1="-23" x2="471" y2="133.5" gradientUnits="userSpaceOnUse">
<stop offset="0.151835" stop-color="#0194FF"/>
<stop offset="1" stop-color="#01EADA"/>
</linearGradient>
<linearGradient id="paint1_linear_218_184" x1="221" y1="49" x2="102" y2="49" gradientUnits="userSpaceOnUse">
<stop stop-color="white" stop-opacity="0.55"/>
<stop offset="1" stop-color="white"/>
</linearGradient>
<linearGradient id="paint2_linear_218_184" x1="133.972" y1="-24.6634" x2="72.4349" y2="226.788" gradientUnits="userSpaceOnUse">
<stop stop-color="#0194FF"/>
<stop offset="0.684053" stop-color="#01EADA"/>
</linearGradient>
</defs>
</svg>
