<svg width="596" height="97" viewBox="0 0 596 97" fill="none" xmlns="http://www.w3.org/2000/svg">
<path fill-rule="evenodd" clip-rule="evenodd" d="M513.073 7L464 91.2662L474.017 97L523.092 12.7336L513.073 7ZM579.641 52.7666L543.246 88.8475L551.428 96.9562L596 52.7666L551.428 8.5772L543.246 16.6857L579.641 52.7666Z" fill="url(#paint0_linear_218_192)"/>
<path d="M119.705 95C118.708 95 118.21 94.4633 118.21 93.39V34.51C118.21 30.37 119.015 26.69 120.625 23.47C122.312 20.25 124.612 17.7583 127.525 15.995C130.515 14.155 133.927 13.235 137.76 13.235C143.663 13.235 148.455 15.2283 152.135 19.215C155.815 23.125 157.655 28.2233 157.655 34.51V43.71C157.655 48.0033 156.735 51.76 154.895 54.98C153.055 58.1233 150.563 60.5383 147.42 62.225L159.725 93.275L159.84 93.735C159.84 94.1183 159.687 94.425 159.38 94.655C159.073 94.885 158.69 95 158.23 95H150.41C149.567 95 149.03 94.54 148.8 93.62L137.875 64.64H128.56V93.39C128.56 94.4633 128.062 95 127.065 95H119.705ZM137.415 55.095C140.405 55.095 142.782 54.0983 144.545 52.105C146.308 50.035 147.19 47.3133 147.19 43.94V34.05C147.19 30.7533 146.308 28.1083 144.545 26.115C142.858 24.045 140.635 23.01 137.875 23.01C135.115 23.01 132.853 24.045 131.09 26.115C129.403 28.1083 128.56 30.7533 128.56 34.05V55.095H137.415ZM177.827 14.5C178.823 14.5 179.322 14.9983 179.322 15.995V75.565C179.322 78.8617 180.165 81.5067 181.852 83.5C183.538 85.4933 185.8 86.49 188.637 86.49C191.473 86.49 193.735 85.4933 195.422 83.5C197.108 81.5067 197.952 78.8617 197.952 75.565V15.995C197.952 15.535 198.105 15.19 198.412 14.96C198.718 14.6533 199.102 14.5 199.562 14.5H206.807C207.88 14.5 208.417 14.9983 208.417 15.995V74.99C208.417 81.2767 206.615 86.4133 203.012 90.4C199.408 94.31 194.617 96.265 188.637 96.265C182.733 96.265 177.98 94.31 174.377 90.4C170.773 86.4133 168.972 81.2767 168.972 74.99V15.995C168.972 14.9983 169.47 14.5 170.467 14.5H177.827ZM221.546 15.995C221.546 14.9983 222.083 14.5 223.156 14.5H230.401C231.398 14.5 231.896 14.9983 231.896 15.995V93.39C231.896 94.4633 231.398 95 230.401 95H223.156C222.083 95 221.546 94.4633 221.546 93.39V15.995Z" fill="url(#paint1_linear_218_192)"/>
<path d="M247.414 95C246.724 95 246.379 94.6933 246.379 94.08V33.935C246.379 27.8783 248.066 22.9717 251.439 19.215C254.889 15.3817 259.413 13.465 265.009 13.465C270.529 13.465 274.976 15.3817 278.349 19.215C281.799 22.9717 283.524 27.8783 283.524 33.935V94.08C283.524 94.6933 283.218 95 282.604 95H279.154C278.464 95 278.119 94.6933 278.119 94.08V33.935C278.119 29.2583 276.931 25.54 274.554 22.78C272.178 19.9433 268.996 18.525 265.009 18.525C261.023 18.525 257.803 19.9433 255.349 22.78C252.973 25.54 251.784 29.2583 251.784 33.935V94.08C251.784 94.6933 251.478 95 250.864 95H247.414ZM315.624 95.23C312.02 95.23 308.8 94.3867 305.964 92.7C303.204 91.0133 301.019 88.675 299.409 85.685C297.875 82.695 297.109 79.36 297.109 75.68V33.82C297.109 30.14 297.875 26.805 299.409 23.815C301.019 20.825 303.204 18.4867 305.964 16.8C308.8 15.1133 312.02 14.27 315.624 14.27H327.009C327.622 14.27 327.929 14.5767 327.929 15.19V18.295C327.929 18.985 327.622 19.33 327.009 19.33H315.624C311.714 19.33 308.532 20.71 306.079 23.47C303.702 26.1533 302.514 29.6033 302.514 33.82V51.645H324.364C325.054 51.645 325.399 51.9517 325.399 52.565V55.67C325.399 56.2833 325.054 56.59 324.364 56.59H302.514V75.68C302.514 79.8967 303.702 83.385 306.079 86.145C308.532 88.8283 311.714 90.17 315.624 90.17H327.009C327.622 90.17 327.929 90.515 327.929 91.205V94.31C327.929 94.9233 327.622 95.23 327.009 95.23H315.624ZM369.829 14.5C370.442 14.5 370.749 14.8067 370.749 15.42V18.525C370.749 19.215 370.442 19.56 369.829 19.56H355.454V94.08C355.454 94.6933 355.147 95 354.534 95H351.084C350.394 95 350.049 94.6933 350.049 94.08V19.56H335.674C335.061 19.56 334.754 19.215 334.754 18.525V15.42C334.754 14.8067 335.061 14.5 335.674 14.5H369.829ZM395.601 95.92C389.851 95.92 385.212 94.0033 381.686 90.17C378.159 86.26 376.396 81.1233 376.396 74.76V34.855C376.396 28.415 378.159 23.2783 381.686 19.445C385.212 15.535 389.851 13.58 395.601 13.58C401.351 13.58 405.989 15.4583 409.516 19.215C413.042 22.9717 414.806 27.9167 414.806 34.05V75.45C414.806 81.5833 413.042 86.5283 409.516 90.285C405.989 94.0417 401.351 95.92 395.601 95.92ZM395.601 90.975C399.741 90.975 403.076 89.5567 405.606 86.72C408.212 83.8833 409.516 80.1267 409.516 75.45V34.05C409.516 29.3733 408.212 25.6167 405.606 22.78C403.076 19.9433 399.741 18.525 395.601 18.525C391.461 18.525 388.126 19.9817 385.596 22.895C383.066 25.8083 381.801 29.795 381.801 34.855V74.76C381.801 79.7433 383.066 83.6917 385.596 86.605C388.126 89.5183 391.461 90.975 395.601 90.975Z" fill="white"/>
<path fill-rule="evenodd" clip-rule="evenodd" d="M16.1247 53.5001L52 17.982L43.9378 10L0 53.5001L43.9378 97L52 89.0183L16.1247 53.5001Z" fill="url(#paint2_linear_218_192)"/>
<defs>
<linearGradient id="paint0_linear_218_192" x1="103.673" y1="-26.6346" x2="41.0842" y2="228.762" gradientUnits="userSpaceOnUse">
<stop stop-color="#7E3DCE"/>
<stop offset="1" stop-color="#FF60C8"/>
</linearGradient>
<linearGradient id="paint1_linear_218_192" x1="112" y1="49" x2="243" y2="49" gradientUnits="userSpaceOnUse">
<stop stop-color="white"/>
<stop offset="1" stop-color="white" stop-opacity="0.5"/>
</linearGradient>
<linearGradient id="paint2_linear_218_192" x1="133.972" y1="-24.6634" x2="72.4349" y2="226.788" gradientUnits="userSpaceOnUse">
<stop stop-color="#7E3DCE"/>
<stop offset="1" stop-color="#FF60C8"/>
</linearGradient>
</defs>
</svg>
